<svg version="1" xmlns="http://www.w3.org/2000/svg" viewBox="0 0 1280 613.47">
  <path fill="#FFF" d="M1127.7 536.4l-55.43-49.8 55.13-47.14c5.07-4.33 6.92-11.44 4.6-17.7s-8.33-10.46-15-10.46h-82.28c-1.4-7.4-7.92-13-15.72-13H896.08l85.46-217.33c10.07-25.6-2.57-54.63-28.18-64.7l-197.4-77.62c-12.4-4.88-25.95-4.62-38.18.7-6.33 2.76-12 6.78-16.65 11.78L538.07 40.08c-18.48-1.26-35.92 7.76-45.64 23.25L347 102.2c-12.86 3.42-23.63 11.68-30.3 23.22-6.68 11.55-8.47 25-5.03 37.86l62.8 235.02H262c-7.8 0-14.3 5.6-15.72 13H163c-6.58 0-12.6 4.13-14.94 10.27-2.36 6.15-.65 13.23 4.25 17.63l55.5 49.8-55.1 47.14c-5 4.34-6.9 11.45-4.6 17.7s8.4 10.46 15 10.46h83.2c1 7.88 7.8 14 15.9 14h757c8.2 0 14.9-6.12 15.9-14h82.1c6.6 0 12.6-4.13 15-10.27 2.4-6.14.7-13.23-4.2-17.63z"/>
  <path fill="#FFF" stroke="#000" stroke-width="11" stroke-miterlimit="10" d="M813.87 475.7L613.3 396.8c-14-5.5-20.9-21.3-15.38-35.3L711.4 72.92c5.5-14 21.3-20.88 35.3-15.38l200.58 78.87c14 5.5 20.87 21.3 15.37 35.3l-113.5 288.7c-5.5 14-21.3 20.9-35.28 15.4z"/>
  <path opacity=".15" d="M710 72.75l25.1-18.8 87.6 33.48L807 413.3l-49 2 19.07-318.2L764 78.3"/>
  <path d="M842.76 288.95l-36.58-83.98c-.46-1.07-1.8-1.6-2.88-1.14l-83.98 36.58c-.54.3-.95.7-1.16 1.3-.22.6-.2 1.2.03 1.7l36.5 84c.2.6.6 1 1.2 1.2s1.1.2 1.7 0l84-36.5c.5-.2.9-.6 1.1-1.2.2-.5.2-1.1-.1-1.7zM740.88 78.77l19.37 7.62c1.86.7 3.1 1.5 3.7 2.4.6.9.64 2 .12 3.3-.32.8-1.24 1.7-2.74 2.6-1.5.9-3.2 2-5.1 3.1-1.88 1.1-3.96 2.6-6.23 4.5-2.28 1.9-4.65 4.3-7.12 7.4-1.07 1.3-1.9 2.4-2.5 3.4s-1.3 2.1-2.17 3.7c-.8 1.5-1.5 2.6-2 3.4-1.2 1.8-2.3 2.9-3.3 3.4s-2.2.4-3.4-.1c-1.2-.5-1.9-1.3-2.3-2.4-.4-1.1-.2-2.5.4-4.1.5-1.3 1.4-2.9 2.8-4.8s3.3-4.2 5.6-6.7c2.4-2.5 5.1-5 8.1-7.4 3-2.5 6.4-4.8 10-6.9l-15.6-6.1c-1.6-.7-2.7-1.4-3.3-2.3-.6-.9-.6-2-.1-3.3.5-1.3 1.3-2 2.3-2.1 1-.1 2.3.2 3.8.8zm79.62 375.58l-19.37-7.62c-1.87-.73-3.1-1.55-3.7-2.46-.6-.9-.65-2.04-.12-3.37.4-.82 1.3-1.7 2.8-2.65 1.5-.96 3.2-2 5.1-3.13 1.9-1.12 4-2.63 6.3-4.5 2.3-1.9 4.7-4.35 7.1-7.4 1.1-1.34 1.9-2.48 2.5-3.4s1.3-2.17 2.2-3.7c.9-1.5 1.6-2.65 2.1-3.44 1.2-1.82 2.3-2.96 3.4-3.43 1.1-.48 2.2-.47 3.4.02 1.2.46 2 1.25 2.4 2.36.4 1.1.3 2.46-.3 4.07-.5 1.24-1.4 2.82-2.8 4.75-1.3 1.93-3.2 4.15-5.5 6.66-2.3 2.6-5 5-8 7.5s-6.3 4.7-10 6.9l15.6 6.1c1.6.7 2.7 1.5 3.3 2.4.6.9.6 2 .1 3.3-.5 1.3-1.3 2-2.3 2.1-1 .1-2.3-.2-3.8-.8z"/>
  <path fill="#FFF" stroke="#000" stroke-width="11" stroke-miterlimit="10" d="M725.32 439.2l-215.04-14.6c-15-1-26.33-14-25.32-29l21-309.4c1-15 14-26.33 29-25.32l215.02 14.6c15 1 26.33 14 25.32 29l-20.98 309.4c-1.02 15-14 26.33-29 25.32z"/>
  <path fill="#C1272D" d="M596.45 186.5l6.63.45c1.6.5 3.22.97 4.8 1.5 8.6 2.9 15.58 8.2 21.75 14.68 1.15 1.2 2.32 2.4 3.32 3.42 4.77-3.22 9.13-6.43 13.75-9.23 5.8-3.52 12.25-5.3 18.97-6.13l5.42.3c.9.3 1.8.7 2.8.9 13.4 2.1 23.6 9 29.5 21.3 8.2 17.1 5.3 33.6-4.9 49-6.3 9.4-14.9 16.5-23.7 23.4-14.7 11.3-29.4 22.8-44 34.2-4.4 3.4-7.2 3.1-11.2-1.2-8.8-9.3-17.7-18.4-26.5-27.7-8.5-9-17.6-17.5-25.3-27-10.9-13.4-15.5-28.8-11.7-46.2 3.3-15.2 15.5-27.6 30.9-30.6 3-.6 6.1-.9 9.2-1.4zm-48.75-61.54l.42-6.05-16.33-1.1c-2.1-.1-3.6-.7-4.6-1.7-1-1-1.4-2.3-1.3-3.9 0-.4.1-.8.3-1.2.2-.4.4-.8.8-1.3l1-1.3c.3-.4.8-.9 1.3-1.5L548.1 85c1.23-1.46 2.23-2.5 3-3.13.77-.64 1.67-.92 2.7-.85 3.3.2 4.8 2.2 4.55 6l-1.7 25.2 1.4.08c1.67.12 3 .44 3.97.96.9.52 1.4 1.56 1.3 3.1-.1 1.25-.6 2.14-1.5 2.66-.84.5-2.1.7-3.74.6l-2-.14-.4 6.05c-.1 1.7-.56 2.9-1.35 3.68-.8.8-1.8 1.1-3.04 1.1-1.2-.1-2.2-.5-2.9-1.4-.7-.9-1-2.1-.9-3.7zm-13.08-14.3l14 .96 1.28-18.9-15.28 17.95z"/>
  <path opacity=".15" d="M630.13 67.34l97.7 344.9h-73L507.5 76.56l18.44-15.75"/>
  <path fill="#C1272D" d="M713.97 374.85l-.4 6.05 16.33 1.1c2.06.15 3.58.72 4.54 1.73.97 1 1.4 2.3 1.3 3.9-.04.42-.14.83-.32 1.25-.18.4-.44.84-.78 1.28-.33.45-.68.88-1.03 1.3l-1.3 1.5-18.8 21.9c-1.2 1.45-2.2 2.5-3 3.12-.8.64-1.6.92-2.7.85-3.3-.22-4.8-2.22-4.5-6l1.7-25.2-1.4-.08c-1.6-.12-3-.43-3.9-.96s-1.4-1.6-1.3-3.1c.1-1.3.6-2.2 1.4-2.7.9-.5 2.2-.7 3.8-.6l2 .1.4-6.1c.1-1.7.6-2.9 1.4-3.7.8-.8 1.8-1.1 3.1-1 1.2 0 2.2.5 2.9 1.4.7.9 1 2.1.9 3.7zm13.1 14.3l-14-.96-1.28 18.9 15.2-18z"/>
  <path fill="#FFF" stroke="#000" stroke-width="11" stroke-miterlimit="10" d="M653.1 419.46L444.86 475.1c-14.53 3.88-29.45-4.75-33.33-19.27L331.5 156.2c-3.9-14.5 4.74-29.43 19.26-33.3l208.22-55.65c14.53-3.88 29.45 4.75 33.33 19.27l80.1 299.62c3.9 14.52-4.7 29.44-19.2 33.32z"/>
  <path d="M554.33 245.86c-4.36-3.75-9.55-6.78-16.33-9.56-9.38-3.83-16.4-7.16-22.74-10.77-9.78-5.58-17.98-11.83-25.07-19.13-1.2-1.2-2.4-2.4-3.6-3.64l-1.6-1.63c-.5-.54-1.3-.77-2-.6-.8.2-1.4.72-1.6 1.44l-.1.28-.2.57c-.3 1.07-.6 2.14-.8 3.2-.5 2.22-1.1 4.5-1.7 6.68-2.4 7.68-5.4 14.97-9.1 21.68-3.8 6.77-8.2 13.56-13.2 20.18l-1.2 1.56c-3.3 4.24-6.6 8.63-9.1 13.63-3.6 7.22-5.2 14-4.9 20.75.4 8.33 3.7 15.45 9.8 21.16 5.2 4.9 11.6 7.85 19 8.78 6.3.8 12.6-.14 18.7-2.73 4.6-1.9 8.8-4.7 12.5-8.4.1 3-.1 5.9-.5 8.8-1.3 8.8-4.2 15.7-9 21.2-.8.9-1 2.3-.8 3.3.2 1.1.5 2.2.8 3.2l.3 1.2c.3 1.2 1.4 1.8 2.6 1.5l51.2-13.7c1.1-.3 1.8-1.4 1.5-2.5l-.3-1.2c-.2-.9-.5-1.8-.7-2.6-.3-1.6-1.3-2.6-2.8-3.1-4.2-1.3-8.2-3.8-12.3-7.5-4.16-3.7-7.7-8.3-10.6-13.6 6.14 1.5 11.9 1.8 17.5.7 10.6-2 18.73-7.6 24.15-16.5 4-6.5 5.4-13.7 4.14-21.2-1.3-8-5.4-14.9-12.6-21.1zm-160.53-70.8l-3.7-5.15-18.56 5-.62 6.5c-.24 2.5-.56 4.3-.94 5.2-.4 1-1.27 1.7-2.64 2-1.16.3-2.3.2-3.42-.4-1.12-.6-1.83-1.4-2.12-2.5-.16-.6-.23-1.3-.2-2s.12-1.7.3-3l3.74-32.7.38-3.4c.15-1.3.38-2.4.7-3.4.32-.9.84-1.7 1.58-2.4.73-.7 1.72-1.2 3-1.6 1.28-.3 2.42-.4 3.4-.1 1 .3 1.86.7 2.6 1.3.73.6 1.4 1.4 2 2.1.6.8 1.37 1.9 2.33 3.2l19.8 26.3c1.52 2 2.42 3.5 2.7 4.5.28 1.1.1 2.2-.55 3.3-.65 1.1-1.6 1.9-2.84 2.2-.73.2-1.38.3-1.97.1-.6-.1-1.12-.3-1.6-.7-.46-.3-1.02-.9-1.68-1.7-.7-.8-1.3-1.5-1.7-2.1zm-21.7-7.78l13.64-3.65-11.9-17-1.73 20.65zM613.07 365.8l3.7 5.13 18.57-4.95.6-6.44c.25-2.5.57-4.24.95-5.2s1.2-1.63 2.6-2c1.1-.3 2.3-.15 3.4.46 1.1.6 1.8 1.46 2.1 2.54.1.62.2 1.3.2 2 0 .73-.1 1.75-.3 3.06l-3.8 32.75-.4 3.4c-.2 1.3-.4 2.43-.7 3.36-.4 1-.9 1.8-1.6 2.5-.8.7-1.8 1.3-3 1.6-1.3.4-2.5.4-3.5.2s-1.9-.7-2.6-1.3c-.7-.6-1.4-1.3-2-2.1-.6-.8-1.4-1.8-2.3-3.1l-19.8-26.3c-1.6-2-2.5-3.5-2.7-4.5-.3-1-.1-2.1.5-3.2s1.5-1.8 2.8-2.2c.7-.2 1.4-.2 1.9-.1.6.1 1.1.4 1.6.7.4.4 1 1 1.6 1.8l1.7 2.2zm21.7 7.77l-13.64 3.64 11.9 17 1.73-20.6z"/>
  <path fill="#FBB03B" stroke="#000" stroke-width="11" stroke-linecap="round" stroke-linejoin="round" stroke-miterlimit="10" d="M990 427.3h127l-69 59 69 62H990zm-700 121H163l69-59-69-62h127z"/>
  <path fill="#C98D2F" d="M238 433.3h25v109h-25zm779 0h25v109h-25z"/>
  <path fill="#FBB03B" stroke="#000" stroke-width="11" stroke-linecap="round" stroke-linejoin="round" stroke-miterlimit="10" d="M262 414.3h757v148H262z"/>
  <path d="M336.85 463.03c0-2.9 2.23-5.13 5.12-5.13h20.85c6.62 0 11.83 1.82 15.14 5.13 2.57 2.56 3.9 5.7 3.9 9.6v.16c0 6.9-3.98 10.6-8.28 12.9 6.78 2.3 11.5 6.2 11.5 14v.1c0 10.3-8.52 15.9-21.43 15.9h-21.68c-2.9 0-5.12-2.3-5.12-5.2V463zm23.9 19.28c6.54 0 10.93-2.5 10.93-7.8v-.1c0-4.5-3.64-7.3-10.18-7.3h-14.64v15.4h13.9zm2.98 24.5c6.95 0 11.17-2.7 11.17-7.9v-.1c0-4.9-3.9-7.8-11.9-7.8h-16.14v15.9h16.87zm41.12-44.2c0-2.8 2.23-5 5.13-5 2.8 0 5.05 2.3 5.05 5.1v44h26.22c2.57 0 4.63 2.1 4.63 4.7s-2.06 4.6-4.63 4.6h-31.27c-2.9 0-5.13-2.2-5.13-5.1v-48.2zm56.17 46.7l21.5-48c1.17-2.5 3.24-4.1 6.14-4.1h.5c2.9 0 4.87 1.6 6.03 4.2l21.5 48c.4.8.5 1.5.5 2.2 0 2.7-2.1 4.9-4.8 4.9-2.4 0-4.1-1.4-5-3.6l-4.7-10.9h-28.1l-4.8 11.1c-.9 2.1-2.6 3.3-4.8 3.3-2.7 0-4.7-2.1-4.7-4.7 0-.7.2-1.4.6-2.3zm37.9-16.4l-10.18-23.4-10.18 23.4h20.35zm32.58-5.7v-.2c0-16.4 12.34-29.9 29.88-29.9 8.93 0 14.8 2.7 19.85 6.6 1.08.9 2 2.3 2 4.1 0 2.8-2.25 5-5.06 5-1.4 0-2.4-.5-3.06-1-3.9-3.2-8.2-5.2-13.8-5.2-11 0-19.1 9.1-19.1 20.5v.2c0 11.3 8.1 20.5 19.1 20.5 6.2 0 10.3-2 14.5-5.5.8-.6 1.8-1.1 3.1-1.1 2.6 0 4.8 2.1 4.8 4.7 0 1.58-.7 2.8-1.6 3.6-5.4 4.8-11.6 7.8-21 7.8-16.8 0-29.4-13.2-29.4-29.8zm71.9-24.5c0-2.8 2.24-5 5.13-5 2.8 0 5.05 2.3 5.05 5.1v24.5l27.47-27.6c1.15-1.2 2.4-1.9 4.2-1.9 2.83 0 4.73 2.3 4.73 4.8 0 1.6-.66 2.7-1.82 3.8l-18.04 17.4 19.53 24.2c.83 1.1 1.4 2.1 1.4 3.7 0 2.8-2.23 5-5.12 5-2 0-3.23-1-4.3-2.4l-18.63-24-9.42 9.1v12c0 2.8-2.24 5.1-5.05 5.1-2.9 0-5.13-2.2-5.13-5v-48.7zm97.38 47.8c-.9-.8-1.74-2.2-1.74-3.8 0-2.7 2.15-4.9 4.88-4.9 1.32 0 2.23.5 3.14 1.2 2.82 2.9 5.55 4.5 9.43 4.5 5.6 0 9.3-3.6 9.3-11.4v-33.3c0-2.8 2.3-5 5.1-5s5.1 2.3 5.1 5.1v33.6c0 6.8-2.1 12-5.5 15.4-3.4 3.4-8.3 5.2-14.1 5.2-7.1 0-12.2-2.7-15.8-6.3zm53.02-1l21.52-48c1.15-2.5 3.22-4.1 6.12-4.1h.5c2.9 0 4.88 1.6 6.03 4.2l21.52 48c.4.8.5 1.5.5 2.2 0 2.8-2.1 4.9-4.8 4.9-2.4 0-4.1-1.4-5-3.5l-4.7-10.9h-28.1l-4.9 11.1c-.9 2.1-2.6 3.3-4.7 3.3-2.7 0-4.7-2-4.7-4.7 0-.7.3-1.4.7-2.3zm37.9-16.4l-10.18-23.4-10.18 23.4h20.36zm32.6-5.7v-.2c0-16.4 12.32-29.9 29.86-29.9 8.93 0 14.8 2.7 19.85 6.6 1.1.8 2 2.2 2 4 0 2.8-2.2 5-5 5-1.4 0-2.4-.5-3-1-3.9-3.2-8.2-5.2-13.8-5.2-11 0-19.1 9.1-19.1 20.4v.2c0 11.4 8.1 20.6 19.1 20.6 6.1 0 10.3-2 14.5-5.54.8-.66 1.9-1.16 3.1-1.16 2.6 0 4.8 2.14 4.8 4.7 0 1.55-.7 2.8-1.6 3.6-5.4 4.8-11.6 7.8-21 7.8-16.8 0-29.4-13.15-29.4-29.8zm71.9-24.5c0-2.8 2.22-5 5.1-5 2.83 0 5.06 2.2 5.06 5v24.5l27.47-27.6c1.16-1.2 2.4-1.9 4.22-1.9 2.8 0 4.7 2.3 4.7 4.7 0 1.6-.65 2.7-1.8 3.8l-18.05 17.4 19.53 24.2c.83 1.1 1.4 2.1 1.4 3.7 0 2.8-2.22 5-5.12 5-1.9 0-3.2-1-4.3-2.4l-18.6-23.75-9.4 9.1v12c0 2.8-2.2 5.1-5 5.1-2.9 0-5.1-2.26-5.1-5.07v-48.7z"/>
  <path fill="#C98D2F" d="M275.5 426.8v123.5H342s-46.2-65 0-123l-66.5-.5zm729.5 124V427.3h-66.5s46.2 65 0 123l66.5.5z"/>
</svg>
