<svg xmlns="http://www.w3.org/2000/svg" xmlns:xlink="http://www.w3.org/1999/xlink" viewBox="5 5 215 140"><defs><path id="a" d="M214.5 9.6h-204v80.57c24 30.24 60.48 49.72 102 49.72s79-19.5 102-49.8V9.6z" stroke-width="5"/><path id="f" d="M33.5 8a78 78 0 1 0 158 0 78 78 0 1 0-158 0"/><path id="g" d="M50.5 8a62 62 0 1 0 124 0 62 62 0 1 0-124 0"/><clipPath id="b"><use xlink:href="#a"/></clipPath><filter id="e" x="-50%" y="-50%" width="200%" height="200%"><feBlend in="SourceGraphic" mode="multiply"/></filter><filter id="c"><feTurbulence type="fractalNoise" baseFrequency="4" result="noisy"/><feBlend in="SourceGraphic" in2="noisy" mode="multiply"/></filter><filter id="d" x="-50%" y="-50%" width="200%" height="200%"><feOffset result="offOut" in="SourceAlpha" dx="1.2" dy="1.2"/><feGaussianBlur result="blurOut" in="offOut" stdDeviation="1"/><feBlend in="SourceGraphic" in2="blurOut"/></filter></defs><g clip-path="url(#b)" stroke="#860707"><use xlink:href="#a" filter="url(#c)" fill="#2a5a30"/><use xlink:href="#a" filter="url(#d)" fill="none"/></g><g font-family="Georgia" filter="url(#e)" opacity=".7" letter-spacing=".8"><g stroke="#e2c213" fill="none"><path d="M112.6 92.43c35.18 0 65.25-21.88 77.34-52.78.4-1.05-.13-2.22-1.18-2.6l-11.7-4.26c-1.02-.4-2.14.1-2.54 1.1-9.77 24.6-33.8 42.1-61.92 42.1S60.44 58.5 50.68 33.9c-.4-1-1.52-1.5-2.54-1.14L36.44 37c-1.05.4-1.6 1.56-1.18 2.6 12.1 30.9 42.16 52.8 77.34 52.8z"/><circle cx="112.5" cy="116.11" r="8"/><circle cx="67.37" cy="106.06" r="8"/><circle cx="30.72" cy="77.89" r="8"/><circle cx="157.65" cy="106.15" r="8"/><circle cx="194.35" cy="78.04" r="8"/></g><g fill="#e2c213" text-anchor="middle"><text><textPath xlink:href="#f" startOffset="25%" font-size="10">BLACKJACK PAYS 3 TO 2</textPath></text><text><textPath xlink:href="#g" startOffset="25%" font-size="6">DEALER MUST STAND ON 17</textPath></text></g></g></svg>
